#!OML:ASF F:\VICON\USERDATA\INSTALL\rory3\rory3.ASF
:FULLY-SPECIFIED
:DEGREES
175
root 1.10024 18.0595 2.18787 -3.8471 -3.91335 -0.026803
lowerback 9.03201 2.49446 0.497527
upperback 0.520771 3.38172 0.275339
thorax -4.50641 1.66495 -0.424264
lowerneck -16.6287 -2.80135 -0.802405
upperneck 18.7767 -3.7321 0.332321
head 8.62337 -1.779 -0.210687
rclavicle 2.18508e-015 -8.15017e-015
rhumerus -30.5631 -12.2422 -80.1331
rradius 27.9477
rwrist 2.48584
rhand -10.0868 13.407
rfingers 7.12502
rthumb 15.9 -15.9603
lclavicle 2.18508e-015 -8.15017e-015
lhumerus -39.8251 2.00954 81.9648
lradius 26.8499
lwrist 4.09561
lhand -20.3535 25.4236
lfingers 7.12502
lthumb 5.99853 55.3186
rfemur -6.99071 3.66889 21.6283
rtibia 70.5787
rfoot 8.34492 -0.892911
rtoes -0.857664
lfemur -16.4986 -1.89373 -22.9469
ltibia 28.7746
lfoot -7.61271 -2.84038
ltoes -12.9043
176
root 1.11416 18.0767 2.35558 -3.98359 -3.73134 0.182974
lowerback 9.00596 2.36324 0.222999
upperback 0.663763 3.18006 0.319709
thorax -4.36186 1.57203 -0.194267
lowerneck -16.5303 -2.78041 -0.805883
upperneck 18.6181 -3.6472 0.0854386
head 8.54629 -1.76707 -0.279681
rclavicle -2.19036e-014 -7.7526e-015
rhumerus -30.4545 -12.1134 -80.2115
rradius 27.8124
rwrist 2.66987
rhand -10.3468 13.7658
rfingers 7.12502
rthumb 15.6496 -15.6212
lclavicle -2.19036e-014 -7.7526e-015
lhumerus -39.3048 2.37888 81.7653
lradius 27.5785
lwrist 2.05841
lhand -16.9556 36.6864
lfingers 7.12502
lthumb 9.27823 66.4622
rfemur -8.36273 3.20648 21.2773
rtibia 71.949
rfoot 7.36874 -1.40602
rtoes -1.50876
lfemur -15.6446 -1.95655 -23.3426
ltibia 28.5907
lfoot -8.10651 -2.72244
ltoes -13.3168
177
root 1.12289 18.1007 2.52282 -4.23022 -3.51857 0.534332
lowerback 8.97682 2.24532 -0.280542
upperback 0.845818 2.97346 0.359297
thorax -4.18425 1.47986 0.16018
lowerneck -16.5644 -2.79367 -0.798315
upperneck 18.7121 -3.61902 -0.141003
head 8.57937 -1.77695 -0.355128
rclavicle -2.48574e-014 -6.16232e-015
rhumerus -30.2851 -12.5052 -80.0557
rradius 27.4138
rwrist 3.41875
rhand -10.3981 14.2878
rfingers 7.12502
rthumb 15.6003 -15.1031
lclavicle -2.48574e-014 -6.16232e-015
lhumerus -39.1637 2.36903 81.8202
lradius 27.6574
lwrist 3.27154
lhand -19.8316 30.394
lfingers 7.12502
lthumb 6.5024 60.2742
rfemur -9.63326 2.70562 20.8045
rtibia 73.0859
rfoot 6.44076 -1.8733
rtoes -1.49202
lfemur -14.6913 -1.99197 -23.8324
ltibia 28.2821
lfoot -8.38666 -2.78827
ltoes -12.3922
178
root 1.1349 18.1174 2.68975 -4.38497 -3.26831 0.612228
lowerback 9.062 2.09039 -0.366299
upperback 0.845072 2.76039 0.397604
thorax -4.23692 1.37603 0.271145
lowerneck -16.5921 -2.75849 -0.826074
upperneck 19.0588 -3.54563 -0.235635
head 8.7008 -1.7532 -0.37769
rclavicle 7.71533e-015 -3.18055e-015
rhumerus -30.5181 -12.9451 -79.8629
rradius 27.0903
rwrist 4.36616
rhand -10.4924 14.9432
rfingers 7.12502
rthumb 15.5094 -14.4548
lclavicle 7.71533e-015 -3.18055e-015
lhumerus -39.2126 2.03132 81.9363
lradius 27.8374
lwrist 3.67442
lhand -21.5397 28.2061
lfingers 7.12502
lthumb 4.85325 58.1305
rfemur -10.8318 2.15647 20.6448
rtibia 74.0052
rfoot 5.41289 -2.19727
rtoes -3.77343
lfemur -13.7995 -2.06001 -24.0211
ltibia 27.9917
lfoot -8.62914 -2.867
ltoes -10.7238
179
root 1.14847 18.1325 2.85553 -4.48311 -3.15192 0.497023
lowerback 9.13869 1.9405 -0.20599
upperback 0.860575 2.57986 0.461235
thorax -4.25765 1.28421 0.267662
lowerneck -16.5356 -2.68674 -0.914825
upperneck 19.238 -3.43729 -0.182865
head 8.75434 -1.7027 -0.333028
rclavicle 9.22796e-015 2.78299e-015
rhumerus -30.6762 -13.4912 -79.7135
rradius 26.8795
rwrist 5.28
rhand -10.2547 15.273
rfingers 7.12502
rthumb 15.7383 -14.1071
lclavicle 9.22796e-015 2.78299e-015
lhumerus -38.8711 1.93092 81.8856
lradius 27.8116
lwrist 3.11031
lhand -21.2355 30.3572
lfingers 7.12502
lthumb 5.14694 60.2747
rfemur -12.1143 1.83685 20.7397
rtibia 74.7618
rfoot 4.57044 -2.62363
rtoes -6.17863
lfemur -12.9656 -2.11155 -24.0113
ltibia 27.7795
lfoot -9.03927 -2.7055
ltoes -10.6691
180
root 1.15102 18.1384 3.00853 -4.56355 -3.04139 0.271687
lowerback 9.35621 1.86007 -0.115833
upperback 0.829207 2.4885 0.594442
thorax -4.41321 1.23806 0.358694
lowerneck -16.4149 -2.68227 -0.874467
upperneck 19.3504 -3.42694 -0.260197
head 8.76858 -1.70334 -0.363832
rclavicle 6.01634e-015 1.19271e-015
rhumerus -30.6716 -14.0888 -79.5153
rradius 26.5022
rwrist 5.68175
rhand -10.1056 15.4505
rfingers 7.12502
rthumb 15.882 -13.9182
lclavicle 6.01634e-015 1.19271e-015
lhumerus -38.634 1.70377 81.7944
lradius 28.2804
lwrist 2.26458
lhand -19.4214 32.8923
lfingers 7.12502
lthumb 6.89838 62.7599
rfemur -13.4978 1.54775 21.0512
rtibia 75.3865
rfoot 3.98444 -3.07321
rtoes -6.81573
lfemur -12.2852 -2.0856 -23.8176
ltibia 27.679
lfoot -9.52631 -2.64285
ltoes -11.4723
181
root 1.15672 18.1353 3.15871 -4.67454 -2.80552 0.358501
lowerback 9.59891 1.72873 -0.341051
upperback 0.761688 2.29315 0.648018
thorax -4.62852 1.14601 0.557387
lowerneck -16.4 -2.62581 -0.824191
upperneck 19.642 -3.36767 -0.248249
head 8.8648 -1.66962 -0.363583
rclavicle 2.57675e-014 7.35503e-015
rhumerus -30.7628 -14.3234 -79.4396
rradius 26.1795
rwrist 5.68906
rhand -9.20859 16.6665
rfingers 7.12502
rthumb 16.7456 -12.6313
lclavicle 2.57675e-014 7.35503e-015
lhumerus -38.7284 0.946998 82.1477
lradius 28.425
lwrist 2.89479
lhand -21.5752 30.2053
lfingers 7.12502
lthumb 4.81896 60.1305
rfemur -14.7853 1.07905 20.9438
rtibia 75.8818
rfoot 3.15887 -3.27518
rtoes -7.29359
lfemur -11.6016 -2.03745 -24.0043
ltibia 27.5883
lfoot -10.103 -2.67637
ltoes -12.0671
182
root 1.16291 18.139 3.31625 -4.83499 -2.53352 0.611543
lowerback 9.76606 1.58404 -0.738174
upperback 0.78413 2.05829 0.670127
thorax -4.70999 1.03803 0.830994
lowerneck -16.3468 -2.59928 -0.858619
upperneck 19.7015 -3.32962 -0.220507
head 8.87664 -1.65142 -0.343638
rclavicle 3.97259e-015 1.23246e-014
rhumerus -30.8945 -14.3305 -79.3824
rradius 26.0252
rwrist 5.82264
rhand -8.39414 17.7983
rfingers 7.12502
rthumb 17.5296 -11.4314
lclavicle 3.97259e-015 1.23246e-014
lhumerus -38.6955 0.58721 82.2911
lradius 28.6491
lwrist 2.45901
lhand -22.9641 27.8951
lfingers 7.12502
lthumb 3.47776 57.8465
rfemur -15.8837 0.647291 20.6494
rtibia 76.1495
rfoot 2.29792 -3.20033
rtoes -6.78132
lfemur -10.9044 -1.90749 -24.3788
ltibia 27.5201
lfoot -10.6731 -2.81283
ltoes -12.3803
183
root 1.16952 18.1445 3.47135 -4.91894 -2.33498 0.797862
lowerback 9.81142 1.50997 -0.910539
upperback 0.887831 1.93794 0.621025
thorax -4.62836 0.980842 0.893813
lowerneck -16.245 -2.65402 -0.742614
upperneck 19.3954 -3.40308 -0.359069
head 8.74865 -1.69372 -0.413847
rclavicle -7.21216e-015 -6.16232e-015
rhumerus -31.0105 -14.773 -79.3058
rradius 26.0224
rwrist 6.19229
rhand -10.3511 18.0106
rfingers 7.12502
rthumb 15.6456 -11.3768
lclavicle -7.21216e-015 -6.16232e-015
lhumerus -38.2495 0.274393 82.1881
lradius 29.1075
lwrist 1.88821
lhand -23.182 28.0137
lfingers 7.12502
lthumb 3.26735 57.9684
rfemur -17.0888 0.280116 20.4663
rtibia 76.2152
rfoot 1.77079 -2.96575
rtoes -4.65201
lfemur -10.3019 -1.8128 -24.6671
ltibia 27.4663
lfoot -11.1605 -2.87711
ltoes -11.9717
184
root 1.1816 18.1516 3.62624 -4.83315 -2.14967 0.945666
lowerback 9.57803 1.43443 -0.950011
upperback 0.980044 1.83156 0.547354
thorax -4.398 0.927383 0.86102
lowerneck -16.1766 -2.66227 -0.564939
upperneck 19.2236 -3.43424 -0.473573
head 8.67195 -1.70843 -0.482451
rclavicle 2.39287e-014 3.97569e-016
rhumerus -31.1245 -15.2105 -79.2822
rradius 26.0879
rwrist 6.11946
rhand -13.2044 18.3981
rfingers 7.12502
rthumb 12.8962 -11.1834
lclavicle 2.39287e-014 3.97569e-016
lhumerus -37.6188 -0.00777936 82.0297
lradius 29.6378
lwrist 0.737788
lhand -20.8479 33.2067
lfingers 7.12502
lthumb 5.52117 63.1148
rfemur -18.4809 -0.09763 20.302
rtibia 76.1195
rfoot 0.99274 -2.70263
rtoes -4.48858
lfemur -9.78583 -1.79374 -24.9382
ltibia 27.5194
lfoot -11.8081 -2.68776
ltoes -12.585
